<?xml version="1.0" standalone="no"?>
<!DOCTYPE svg PUBLIC "-//W3C//DTD SVG 20010904//EN"
 "http://www.w3.org/TR/2001/REC-SVG-20010904/DTD/svg10.dtd">
<svg version="1.0" xmlns="http://www.w3.org/2000/svg"
 width="500.000000pt" height="500.000000pt" viewBox="0 0 500.000000 500.000000"
 preserveAspectRatio="xMidYMid meet">

<g transform="translate(0.000000,500.000000) scale(0.100000,-0.100000)"
fill="#000000" stroke="none">
<path d="M0 2500 l0 -2500 467 0 c273 1 462 4 454 10 -12 7 -12 12 2 34 10 15
13 27 7 31 -6 3 -10 1 -10 -4 0 -6 -4 -11 -9 -11 -6 0 -8 9 -6 20 2 11 -1 20
-7 20 -6 0 -8 3 -5 7 4 3 0 11 -9 18 -14 10 -14 13 -2 26 7 8 13 24 12 37 -1
16 3 21 12 18 8 -3 14 1 14 9 0 9 -6 12 -17 8 -10 -3 -4 8 15 26 26 26 31 36
25 59 -5 23 -4 25 9 14 13 -10 20 -9 39 8 21 17 22 21 9 31 -12 9 -11 10 7 6
12 -3 27 1 34 9 6 8 19 14 28 14 10 0 26 6 36 14 10 7 26 11 36 9 9 -3 27 1
39 7 12 7 20 8 16 2 -3 -5 10 -13 30 -17 20 -3 44 -11 54 -17 14 -9 24 -8 44
5 29 19 40 22 31 7 -3 -5 3 -10 14 -10 12 0 21 -5 21 -11 0 -5 5 -7 11 -3 7 4
10 -3 9 -17 -4 -47 -2 -51 30 -44 17 4 30 3 29 -2 -4 -15 24 -63 36 -63 7 0
24 -11 39 -25 35 -33 60 -45 89 -45 14 0 28 -7 32 -17 6 -17 7 -17 16 0 11 19
39 23 39 6 0 -6 7 -9 15 -5 8 3 42 -11 76 -30 33 -20 69 -34 79 -31 10 2 23
-4 31 -14 12 -17 32 -24 98 -32 13 -2 32 -14 42 -28 l18 -24 590 -3 591 -2 2
27 c0 16 1 34 1 40 -1 9 4 10 18 2 11 -5 19 -15 19 -22 0 -8 -3 -8 -9 2 -5 8
-11 9 -15 3 -3 -6 3 -13 14 -17 11 -4 18 -10 15 -15 -3 -5 0 -12 6 -16 6 -3
15 0 20 7 6 10 9 11 9 1 0 -19 731 -13 738 7 3 10 -1 12 -16 9 -15 -4 -19 -2
-15 8 3 8 10 11 17 7 6 -4 5 1 -3 10 -10 12 -10 17 -1 17 6 0 10 6 7 13 -2 6
-10 11 -16 10 -6 -2 -11 1 -11 6 0 5 -9 11 -20 14 -13 3 -20 13 -20 29 1 20
-5 65 -9 77 0 2 -7 -1 -13 -7 -20 -15 -55 3 -62 32 -3 14 -13 26 -21 26 -8 0
-15 9 -15 20 0 11 -5 20 -11 20 -7 0 -9 11 -5 30 3 17 2 30 -2 30 -13 0 -31
54 -30 93 0 21 -6 45 -13 54 -10 12 -10 15 -1 9 7 -4 12 -1 12 8 0 9 5 16 10
16 6 0 10 9 10 21 0 60 56 177 76 160 11 -8 63 22 57 33 -10 17 29 -15 53 -43
19 -22 24 -24 38 -12 14 12 16 12 10 -3 -4 -11 0 -16 12 -18 11 0 25 -2 32 -2
8 -1 20 -10 28 -20 12 -17 14 -17 20 -3 5 14 12 12 48 -16 60 -47 85 -59 108
-51 18 5 20 3 16 -20 -4 -21 -3 -24 8 -15 11 9 14 8 14 -4 0 -10 8 -14 25 -13
15 2 22 -1 18 -7 -4 -6 0 -8 10 -4 9 3 19 1 23 -5 4 -7 9 -6 15 3 7 11 9 10 9
-3 0 -11 5 -15 14 -12 8 3 23 -3 33 -13 13 -13 31 -18 63 -16 49 1 100 -19
140 -55 14 -13 38 -28 53 -34 21 -8 25 -13 16 -19 -10 -6 -4 -12 22 -23 20 -8
41 -22 48 -30 7 -8 21 -13 33 -11 13 3 18 0 15 -9 -4 -10 1 -12 15 -8 16 4 19
2 13 -9 -6 -11 -5 -11 4 -3 7 7 21 9 32 7 17 -5 19 -18 22 -152 1 -80 4 980 5
2357 l2 2502 -2500 0 -2500 0 0 -2500z m2558 1805 c28 -15 61 -39 74 -53 22
-24 21 -24 -21 4 -35 23 -58 29 -111 32 -83 5 -124 -8 -179 -54 -61 -53 -85
-105 -85 -184 1 -197 211 -310 379 -204 l40 25 -44 -39 c-181 -163 -471 -31
-474 215 -1 130 67 226 198 280 52 22 163 11 223 -22z m-53 -125 l18 -60 71 0
70 0 -56 -41 -56 -41 19 -61 c10 -34 17 -62 16 -64 -2 -1 -26 13 -55 32 -28
19 -54 35 -57 35 -4 0 -27 -16 -52 -35 -25 -19 -48 -33 -51 -31 -2 3 3 26 12
52 9 26 16 53 16 61 0 7 -23 30 -51 50 l-50 38 67 5 68 5 20 62 c11 34 22 60
26 58 4 -2 15 -31 25 -65z m35 -646 c190 -191 390 -352 535 -431 72 -39 69
-41 -14 -8 -175 68 -401 207 -559 344 l-83 72 -172 -143 c-277 -231 -566 -457
-713 -556 -187 -126 -266 -317 -220 -533 16 -74 55 -172 93 -233 25 -39 25
-40 3 -21 -36 31 -95 115 -129 183 -87 172 -82 359 13 506 61 94 116 145 339
313 381 287 718 553 761 602 11 11 22 21 25 21 4 0 58 -52 121 -116z m-215
-510 c22 -15 32 -23 22 -20 -66 22 -61 27 -290 -325 l-17 -26 117 -46 c783
-303 738 -287 809 -287 63 0 87 -8 338 -109 471 -191 426 -169 414 -197 -6
-13 -16 -24 -22 -24 -6 0 -133 49 -282 110 -254 103 -277 110 -360 116 -79 6
-107 14 -254 74 -91 38 -311 127 -490 200 -179 73 -329 136 -334 140 -8 8 289
420 302 420 4 0 25 -12 47 -26z m1505 -183 c83 -112 147 -207 143 -211 -4 -4
-188 -80 -407 -170 -387 -157 -401 -162 -438 -151 -21 7 -38 15 -38 20 0 4
179 77 398 161 218 84 401 157 406 161 5 4 -45 89 -110 189 -125 190 -121 187
-179 165 -11 -4 -4 4 15 18 19 15 41 25 47 24 7 -1 80 -94 163 -206z m-1310
175 c30 -4 102 -11 160 -16 102 -9 158 -23 224 -57 67 -34 64 -16 58 -311 -2
-147 -6 -268 -7 -270 -2 -2 -23 17 -47 41 -109 109 -377 203 -660 232 -38 4
-68 9 -68 11 0 2 57 92 126 199 104 160 129 193 142 186 10 -4 42 -11 72 -15z
m1228 -337 l22 -36 -62 -7 c-298 -32 -547 -117 -662 -226 l-53 -50 -8 270 c-8
308 -16 277 82 324 57 28 118 39 290 56 62 6 123 14 135 19 21 8 31 -3 128
-153 58 -88 116 -177 128 -197z m-1006 -400 c-15 -13 -523 -212 -528 -206 -16
15 24 47 103 82 96 42 103 48 103 84 0 44 -55 64 -116 41 -15 -6 -29 -9 -31
-6 -14 14 25 43 108 80 l93 43 137 -56 c76 -31 135 -59 131 -62z m879 51 c41
-21 79 -70 43 -55 -11 4 -38 9 -60 12 -33 4 -46 1 -63 -16 -43 -43 -23 -68 94
-118 70 -31 91 -44 93 -61 2 -12 1 -22 -3 -22 -10 0 -509 202 -517 209 -5 4
54 32 129 63 l137 55 54 -24 c30 -13 72 -33 93 -43z m-1247 -66 c9 -3 16 -15
16 -25 0 -17 -3 -18 -21 -9 -15 8 -29 8 -52 1 -45 -16 -59 4 -16 23 39 17 51
18 73 10z m456 -13 l35 -19 -35 -14 c-19 -8 -158 -64 -308 -124 -265 -105
-274 -108 -288 -89 -8 10 -13 23 -11 28 2 7 552 236 567 236 3 0 21 -8 40 -18z
m824 -1 c42 -16 20 -34 -24 -19 -25 9 -37 9 -51 0 -24 -14 -29 -14 -29 2 0 37
37 43 104 17z m-1607 -321 c33 -12 93 -51 93 -61 0 -3 -16 -16 -35 -28 l-35
-22 -26 21 c-35 28 -99 29 -113 2 -15 -27 2 -37 89 -55 61 -13 80 -22 104 -47
24 -27 27 -38 23 -72 -16 -120 -212 -160 -314 -65 -26 24 -23 32 17 53 27 14
32 14 62 -5 55 -34 138 -23 138 17 0 17 -29 29 -104 44 -78 15 -116 50 -116
107 0 91 115 150 217 111z m981 5 c29 -8 33 -64 4 -64 -19 0 -42 -18 -42 -32
0 -4 14 -8 30 -8 25 0 30 -4 30 -25 0 -20 -5 -25 -25 -25 l-25 0 0 -110 0
-110 -45 0 -45 0 0 110 c0 103 -1 110 -20 110 -15 0 -20 7 -20 25 0 18 5 25
20 25 14 0 20 7 20 24 0 39 11 57 44 72 36 15 43 16 74 8z m-1721 -159 c30
-82 57 -151 58 -153 2 -2 15 4 28 13 24 15 27 15 51 0 30 -20 91 -17 91 5 0
10 -19 19 -55 27 -56 12 -100 47 -100 79 0 28 28 70 55 82 37 17 111 15 151
-4 40 -19 40 -21 13 -50 -20 -22 -23 -22 -51 -8 -33 17 -69 15 -75 -3 -3 -7 8
-15 24 -19 96 -21 133 -48 133 -95 0 -82 -122 -125 -219 -76 -26 13 -31 13
-31 1 0 -10 -13 -14 -49 -14 -45 0 -50 2 -60 30 -10 29 -12 30 -75 30 -63 0
-65 0 -71 -30 -6 -29 -9 -30 -60 -30 l-54 0 26 68 c14 37 40 108 58 157 60
162 48 146 106 143 l51 -3 55 -150z m1253 -30 l0 -185 -45 0 -45 0 0 185 0
185 45 0 45 0 0 -185z m608 153 c-3 -31 -5 -33 -43 -33 -38 0 -40 2 -43 33 -3
32 -3 32 43 32 46 0 46 0 43 -32z m672 -29 l0 -60 22 15 c34 24 85 20 113 -9
24 -23 25 -30 25 -140 l0 -115 -40 0 -40 0 0 86 c0 91 -10 124 -38 124 -34 0
-42 -21 -42 -117 l0 -93 -45 0 -45 0 0 185 0 185 45 0 45 0 0 -61z m-1446 -58
c23 -22 25 -31 28 -137 l3 -114 -42 0 c-24 0 -43 4 -43 9 0 6 -12 3 -27 -5
-44 -22 -81 -17 -114 15 -59 59 -20 129 84 151 31 6 57 13 57 15 0 34 -47 47
-70 20 -14 -17 -76 -20 -85 -5 -9 15 21 59 48 70 12 6 48 8 79 7 44 -3 64 -9
82 -26z m425 4 c16 -17 20 -39 23 -137 l3 -118 -37 0 c-21 0 -38 4 -38 10 0 5
-15 2 -34 -6 -69 -33 -136 3 -136 74 0 45 38 78 106 92 43 9 54 15 54 31 0 14
-7 19 -29 19 -16 0 -31 -6 -35 -15 -3 -10 -19 -15 -46 -15 -33 0 -40 3 -40 19
0 11 14 31 32 46 29 24 38 27 95 23 46 -3 69 -9 82 -23z m841 10 c36 -18 39
-31 42 -163 l3 -102 -37 0 c-21 0 -38 5 -38 10 0 6 -13 4 -30 -5 -40 -21 -82
-19 -113 5 -33 26 -41 63 -22 100 18 35 37 46 105 61 39 8 50 15 48 27 -4 23
-56 29 -64 8 -4 -11 -19 -16 -45 -16 -31 0 -39 4 -39 18 0 22 18 46 45 60 29
16 111 14 145 -3z m-490 -130 l0 -135 -45 0 -45 0 0 135 0 135 45 0 45 0 0
-135z m125 40 l21 -90 20 90 20 90 47 3 46 3 -54 -163 c-62 -184 -79 -208
-146 -208 -38 0 -39 1 -39 35 0 30 3 35 24 35 14 0 28 4 31 10 3 5 -12 68 -35
138 -22 71 -40 135 -40 141 0 8 14 11 42 9 l43 -3 20 -90z m-1495 -15 l0 -40
-80 0 -80 0 0 40 0 40 80 0 80 0 0 -40z m1548 -1611 c-10 -7 -10 -9 2 -10 10
0 8 -3 -5 -8 -11 -5 -23 -7 -27 -4 -14 8 -8 23 8 23 8 0 12 4 9 10 -3 6 1 7
10 3 13 -5 14 -7 3 -14z m679 -15 c-3 -3 -12 -4 -19 -1 -8 3 -5 6 6 6 11 1 17
-2 13 -5z m3 -24 c-8 -5 -22 -9 -30 -9 -10 0 -8 3 5 9 27 12 43 12 25 0z"/>
<path d="M1177 1760 c-10 -33 -17 -62 -17 -65 0 -3 18 -5 41 -5 34 0 40 3 35
16 -4 9 -11 36 -17 60 -6 25 -15 46 -19 49 -4 2 -14 -22 -23 -55z"/>
<path d="M2300 1675 c-36 -12 -52 -42 -29 -56 18 -11 48 8 60 38 5 14 8 27 7
28 -2 1 -19 -3 -38 -10z"/>
<path d="M2718 1673 c-57 -23 -48 -73 9 -52 19 7 42 53 32 63 -2 2 -21 -3 -41
-11z"/>
<path d="M3580 1676 c-38 -14 -53 -49 -25 -60 19 -7 65 35 65 59 0 8 -1 15 -2
14 -2 0 -19 -6 -38 -13z"/>
<path d="M4830 326 c0 -9 5 -16 10 -16 6 0 10 4 10 9 0 6 -4 13 -10 16 -5 3
-10 -1 -10 -9z"/>
<path d="M4109 34 c-1 -23 -3 -25 -6 -6 -6 30 -18 28 -18 -3 0 -21 4 -24 32
-23 31 1 31 1 15 27 -9 14 -17 28 -19 30 -2 2 -4 -9 -4 -25z"/>
<path d="M2030 40 c0 -5 5 -10 11 -10 5 0 7 5 4 10 -3 6 -8 10 -11 10 -2 0 -4
-4 -4 -10z"/>
</g>
</svg>
