<?xml version="1.0" standalone="no"?>
<!DOCTYPE svg PUBLIC "-//W3C//DTD SVG 20010904//EN"
 "http://www.w3.org/TR/2001/REC-SVG-20010904/DTD/svg10.dtd">
<svg version="1.0" xmlns="http://www.w3.org/2000/svg"
 width="500.000000pt" height="500.000000pt" viewBox="0 0 500.000000 500.000000"
 preserveAspectRatio="xMidYMid meet">

<g transform="translate(0.000000,500.000000) scale(0.100000,-0.100000)"
fill="#000000" stroke="none">
<path d="M2360 4329 c-67 -13 -147 -74 -183 -137 -80 -144 -20 -332 130 -402
84 -39 216 -27 278 25 l30 26 -34 -16 c-159 -78 -351 44 -351 223 0 95 45 170
131 217 66 36 162 40 219 10 29 -15 33 -15 22 -2 -39 46 -157 74 -242 56z"/>
<path d="M2457 4180 l-17 -60 -68 0 -67 -1 25 -21 c14 -11 37 -30 53 -42 l27
-22 -20 -58 c-11 -33 -20 -61 -20 -63 0 -3 19 10 43 28 23 18 47 36 53 40 6 5
35 -9 67 -32 l56 -40 -21 62 -21 62 24 21 c13 12 38 31 54 43 l30 22 -67 1
-66 0 -17 53 c-10 28 -21 56 -25 60 -3 4 -14 -20 -23 -53z"/>
<path d="M2315 3553 c-115 -98 -347 -279 -650 -507 -241 -182 -301 -235 -360
-326 -78 -120 -100 -232 -70 -365 18 -84 78 -210 126 -265 l30 -35 -19 40
c-94 193 -97 398 -8 550 42 70 87 116 174 176 176 121 392 289 725 566 81 68
152 123 157 123 5 0 37 -25 71 -55 87 -78 200 -161 294 -218 86 -52 265 -141
271 -134 2 2 -30 25 -72 52 -109 68 -274 206 -429 356 -73 71 -134 129 -136
128 -2 0 -49 -39 -104 -86z"/>
<path d="M2130 2852 c-80 -107 -148 -200 -152 -207 -5 -8 105 -58 355 -160
199 -82 425 -175 501 -207 128 -53 145 -58 214 -58 72 0 85 -4 364 -116 159
-64 290 -115 292 -113 2 2 6 13 10 25 8 25 36 12 -356 170 -288 116 -312 124
-375 124 -63 0 -94 10 -498 166 -236 91 -434 170 -438 174 -6 6 202 339 233
373 4 5 17 4 29 -2 12 -7 21 -9 21 -7 0 3 -12 12 -28 20 l-27 14 -145 -196z"/>
<path d="M3635 3030 c-31 -21 -28 -27 6 -10 17 10 32 -9 143 -177 121 -182
124 -188 103 -199 -12 -6 -194 -78 -404 -159 -211 -82 -383 -152 -383 -156 0
-4 14 -12 32 -18 30 -11 59 0 440 155 l408 167 -38 52 c-111 155 -268 364
-272 365 -3 0 -18 -9 -35 -20z"/>
<path d="M2377 2948 c-30 -45 -84 -129 -120 -186 -37 -56 -67 -106 -67 -110 0
-4 15 -9 33 -10 85 -6 292 -48 383 -77 132 -43 228 -92 291 -149 l50 -45 7 52
c3 29 6 150 6 270 l0 218 -72 34 c-75 35 -124 45 -323 64 -55 5 -108 12 -117
16 -14 5 -29 -11 -71 -77z"/>
<path d="M3460 3020 c-19 -5 -92 -14 -162 -19 -101 -9 -144 -17 -207 -41 -43
-17 -85 -38 -93 -48 -13 -14 -14 -57 -10 -283 l4 -266 43 42 c74 75 200 135
374 180 98 25 273 55 325 55 23 0 27 3 21 18 -14 38 -238 372 -249 371 -6 -1
-27 -5 -46 -9z"/>
<path d="M2380 2351 c-46 -21 -91 -48 -99 -60 -13 -21 -13 -21 13 -11 44 16
94 12 116 -10 42 -42 21 -68 -94 -120 -69 -31 -96 -48 -96 -61 0 -14 43 0 253
83 138 56 255 104 260 108 6 6 -242 110 -261 110 -4 0 -45 -18 -92 -39z"/>
<path d="M3332 2337 c-67 -28 -119 -54 -115 -58 5 -4 116 -51 248 -104 132
-53 246 -99 253 -102 10 -4 13 1 10 16 -2 18 -22 31 -89 59 -101 43 -119 57
-119 87 0 37 33 58 82 53 24 -3 51 -8 62 -13 16 -7 17 -5 8 12 -12 21 -173
104 -200 102 -10 0 -72 -24 -140 -52z"/>
<path d="M2312 2253 c-51 -18 -47 -36 4 -20 27 8 40 8 55 -1 15 -10 19 -9 19
3 0 26 -32 33 -78 18z"/>
<path d="M3566 2254 c-21 -21 -11 -37 14 -22 14 9 28 9 54 1 54 -17 53 3 -1
21 -56 19 -48 19 -67 0z"/>
<path d="M2725 2241 c-22 -9 -144 -59 -271 -111 -227 -92 -232 -94 -221 -117
7 -16 16 -22 26 -18 9 3 148 58 310 123 280 111 292 117 265 129 -38 16 -61
15 -109 -6z"/>
<path d="M1917 1926 c-48 -18 -62 -30 -77 -66 -28 -68 13 -131 95 -145 88 -15
115 -25 115 -44 0 -47 -88 -61 -140 -22 l-29 21 -36 -21 c-19 -12 -35 -23 -35
-25 0 -2 18 -17 41 -33 75 -55 201 -50 261 9 23 23 28 37 28 75 0 62 -28 89
-106 104 -101 20 -105 21 -111 37 -17 44 63 60 122 25 l33 -19 31 22 c29 22
30 24 13 38 -54 48 -143 67 -205 44z"/>
<path d="M1086 1751 c-36 -98 -66 -181 -66 -185 0 -3 20 -6 46 -6 41 0 46 3
55 30 11 29 12 30 79 30 68 0 68 0 75 -30 6 -28 9 -30 56 -30 46 0 50 2 44 21
-7 20 -6 20 19 4 86 -57 212 -29 232 51 11 42 -23 76 -92 95 -39 10 -60 21
-62 32 -3 13 4 17 28 17 17 0 40 -5 51 -11 15 -8 25 -6 45 10 l25 20 -27 18
c-20 12 -47 18 -90 18 -79 0 -114 -27 -114 -87 0 -32 5 -41 31 -57 17 -11 51
-22 75 -26 35 -5 44 -10 44 -26 0 -28 -64 -30 -105 -3 -20 13 -24 12 -40 -6
-10 -11 -21 -20 -25 -20 -4 0 -33 72 -65 160 l-58 160 -47 0 -47 0 -67 -179z
m138 10 c23 -78 22 -81 -22 -81 -21 0 -41 2 -44 5 -3 3 4 37 15 76 11 38 24
66 28 62 4 -4 14 -32 23 -62z"/>
<path d="M2477 1923 c-4 -3 -7 -87 -7 -185 l0 -178 40 0 40 0 0 185 0 185 -33
0 c-19 0 -37 -3 -40 -7z"/>
<path d="M2944 1922 c-16 -11 -34 -48 -34 -71 0 -14 -6 -21 -20 -21 -15 0 -20
-7 -20 -25 0 -18 5 -25 20 -25 19 0 20 -7 20 -110 l0 -110 40 0 40 0 0 110 0
110 31 0 c26 0 30 3 27 23 -2 16 -11 23 -31 25 -34 4 -34 35 1 40 17 3 22 10
22 33 0 28 -2 29 -42 29 -24 0 -48 -4 -54 -8z"/>
<path d="M3090 1901 c0 -30 2 -31 41 -31 38 0 40 1 37 28 -3 23 -8 27 -40 30
-36 3 -38 2 -38 -27z"/>
<path d="M3760 1746 l0 -186 40 0 39 0 3 96 c2 79 6 99 21 108 12 8 22 8 35 0
14 -9 18 -29 20 -108 l3 -96 39 0 40 0 0 105 c0 114 -9 147 -47 164 -32 15
-52 14 -85 -3 l-27 -14 -3 56 -3 57 -37 3 -38 3 0 -185z"/>
<path d="M2234 1826 c-28 -13 -44 -33 -44 -57 0 -5 18 -9 40 -9 22 0 40 4 40
9 0 16 40 23 55 11 23 -19 18 -39 -12 -46 -16 -3 -48 -12 -72 -21 -80 -28 -89
-117 -16 -152 26 -12 35 -12 75 2 26 10 46 12 48 7 2 -6 19 -10 38 -10 l34 0
0 99 c0 55 -4 111 -10 126 -18 48 -110 69 -176 41z m102 -163 c-12 -47 -52
-67 -76 -38 -15 18 -5 34 34 51 44 19 49 17 42 -13z"/>
<path d="M2663 1825 c-27 -11 -53 -41 -53 -59 0 -13 78 -5 90 9 20 24 55 15
55 -14 0 -21 -7 -26 -55 -37 -90 -20 -130 -93 -77 -142 33 -30 70 -37 109 -18
20 11 34 13 36 6 2 -5 20 -10 40 -10 l37 0 -3 102 c-1 57 -5 113 -8 126 -10
45 -106 66 -171 37z m97 -158 c0 -51 -71 -77 -78 -29 -3 17 4 26 30 37 45 19
48 19 48 -8z"/>
<path d="M3535 1833 c-26 -7 -65 -43 -65 -60 0 -19 69 -17 91 3 22 20 59 10
59 -16 0 -13 -9 -22 -27 -26 -63 -13 -95 -27 -113 -47 -22 -22 -26 -67 -10
-97 20 -37 100 -47 139 -16 11 8 15 8 18 -1 3 -7 20 -13 39 -13 l34 0 0 109
c0 100 -2 112 -22 136 -18 20 -35 27 -73 30 -27 2 -59 1 -70 -2z m85 -163 c0
-23 -33 -60 -54 -60 -19 0 -39 27 -31 41 7 10 61 38 78 39 4 0 7 -9 7 -20z"/>
<path d="M3090 1695 l0 -135 40 0 40 0 0 135 0 135 -40 0 -40 0 0 -135z"/>
<path d="M3190 1824 c0 -4 18 -65 41 -136 22 -72 38 -136 35 -144 -3 -8 -17
-14 -31 -14 -21 0 -25 -5 -25 -30 0 -29 1 -30 48 -30 34 0 54 5 64 18 13 14
118 313 118 335 0 4 -18 7 -39 7 l-39 0 -21 -86 c-11 -47 -22 -88 -24 -91 -3
-2 -10 20 -17 49 -31 135 -27 128 -70 128 -22 0 -40 -3 -40 -6z"/>
<path d="M1650 1720 l0 -40 75 0 75 0 0 40 0 40 -75 0 -75 0 0 -40z"/>
</g>
</svg>
